<mxfile host="app.diagrams.net" modified="2020-05-11T06:53:40.009Z" agent="5.0 (Windows NT 10.0; Win64; x64) AppleWebKit/537.36 (KHTML, like Gecko) Chrome/80.0.3987.122 Safari/537.36" etag="tiyewbZDkahw2UF3nL6X" version="13.0.9" type="github">
  <diagram id="I15Ow1WzRtr3CukaYdIu" name="Page-1">
    <mxGraphModel dx="782" dy="437" grid="1" gridSize="10" guides="1" tooltips="1" connect="1" arrows="1" fold="1" page="1" pageScale="1" pageWidth="827" pageHeight="1169" math="0" shadow="0">
      <root>
        <mxCell id="0" />
        <mxCell id="1" parent="0" />
        <mxCell id="xpTXCpao_qIakRcMXGm0-5" style="edgeStyle=orthogonalEdgeStyle;rounded=0;orthogonalLoop=1;jettySize=auto;html=1;entryX=0.5;entryY=0;entryDx=0;entryDy=0;" edge="1" parent="1" source="xpTXCpao_qIakRcMXGm0-1" target="xpTXCpao_qIakRcMXGm0-4">
          <mxGeometry relative="1" as="geometry" />
        </mxCell>
        <mxCell id="xpTXCpao_qIakRcMXGm0-1" value="打开视频播放页面" style="rounded=0;whiteSpace=wrap;html=1;" vertex="1" parent="1">
          <mxGeometry x="100" y="70" width="120" height="60" as="geometry" />
        </mxCell>
        <mxCell id="xpTXCpao_qIakRcMXGm0-7" style="edgeStyle=orthogonalEdgeStyle;rounded=0;orthogonalLoop=1;jettySize=auto;html=1;entryX=0;entryY=0.5;entryDx=0;entryDy=0;" edge="1" parent="1" source="xpTXCpao_qIakRcMXGm0-4" target="xpTXCpao_qIakRcMXGm0-6">
          <mxGeometry relative="1" as="geometry" />
        </mxCell>
        <mxCell id="xpTXCpao_qIakRcMXGm0-8" value="有" style="edgeLabel;html=1;align=center;verticalAlign=middle;resizable=0;points=[];" vertex="1" connectable="0" parent="xpTXCpao_qIakRcMXGm0-7">
          <mxGeometry x="-0.2063" relative="1" as="geometry">
            <mxPoint as="offset" />
          </mxGeometry>
        </mxCell>
        <mxCell id="xpTXCpao_qIakRcMXGm0-10" value="否" style="edgeStyle=orthogonalEdgeStyle;rounded=0;orthogonalLoop=1;jettySize=auto;html=1;entryX=0.5;entryY=0;entryDx=0;entryDy=0;" edge="1" parent="1" source="xpTXCpao_qIakRcMXGm0-4" target="xpTXCpao_qIakRcMXGm0-9">
          <mxGeometry relative="1" as="geometry" />
        </mxCell>
        <mxCell id="xpTXCpao_qIakRcMXGm0-4" value="&lt;span&gt;检查缓存中是否有订阅信息&lt;/span&gt;" style="rhombus;whiteSpace=wrap;html=1;" vertex="1" parent="1">
          <mxGeometry x="65" y="190" width="190" height="80" as="geometry" />
        </mxCell>
        <mxCell id="xpTXCpao_qIakRcMXGm0-6" value="返回订阅相关信息" style="rounded=0;whiteSpace=wrap;html=1;" vertex="1" parent="1">
          <mxGeometry x="360" y="200" width="120" height="60" as="geometry" />
        </mxCell>
        <mxCell id="xpTXCpao_qIakRcMXGm0-12" style="edgeStyle=orthogonalEdgeStyle;rounded=0;orthogonalLoop=1;jettySize=auto;html=1;" edge="1" parent="1" source="xpTXCpao_qIakRcMXGm0-9" target="xpTXCpao_qIakRcMXGm0-11">
          <mxGeometry relative="1" as="geometry" />
        </mxCell>
        <mxCell id="xpTXCpao_qIakRcMXGm0-9" value="发送订阅命令" style="rounded=0;whiteSpace=wrap;html=1;" vertex="1" parent="1">
          <mxGeometry x="100" y="350" width="120" height="60" as="geometry" />
        </mxCell>
        <mxCell id="xpTXCpao_qIakRcMXGm0-15" style="edgeStyle=orthogonalEdgeStyle;rounded=0;orthogonalLoop=1;jettySize=auto;html=1;entryX=0;entryY=0.5;entryDx=0;entryDy=0;" edge="1" parent="1" source="xpTXCpao_qIakRcMXGm0-11" target="xpTXCpao_qIakRcMXGm0-4">
          <mxGeometry relative="1" as="geometry">
            <Array as="points">
              <mxPoint x="30" y="500" />
              <mxPoint x="30" y="230" />
            </Array>
          </mxGeometry>
        </mxCell>
        <mxCell id="xpTXCpao_qIakRcMXGm0-16" value="保存缓存" style="edgeLabel;html=1;align=center;verticalAlign=middle;resizable=0;points=[];" vertex="1" connectable="0" parent="xpTXCpao_qIakRcMXGm0-15">
          <mxGeometry x="0.28" y="4" relative="1" as="geometry">
            <mxPoint as="offset" />
          </mxGeometry>
        </mxCell>
        <mxCell id="xpTXCpao_qIakRcMXGm0-11" value="网关建立订阅通道" style="rounded=0;whiteSpace=wrap;html=1;" vertex="1" parent="1">
          <mxGeometry x="100" y="470" width="120" height="60" as="geometry" />
        </mxCell>
      </root>
    </mxGraphModel>
  </diagram>
</mxfile>
